<?xml version="1.0" encoding="UTF-8" standalone="no"?>
<!-- Created with Inkscape (http://www.inkscape.org/) -->

<svg
   version="1.1"
   id="svg2"
   xml:space="preserve"
   width="2560"
   height="768"
   viewBox="0 0 2560 768"
   sodipodi:docname="CompAI [Recovered].ai"
   xmlns:inkscape="http://www.inkscape.org/namespaces/inkscape"
   xmlns:sodipodi="http://sodipodi.sourceforge.net/DTD/sodipodi-0.dtd"
   xmlns="http://www.w3.org/2000/svg"
   xmlns:svg="http://www.w3.org/2000/svg"><defs
     id="defs6"><clipPath
       clipPathUnits="userSpaceOnUse"
       id="clipPath16"><path
         d="M 0,576 H 1920 V 0 H 0 Z"
         id="path14" /></clipPath></defs><sodipodi:namedview
     id="namedview4"
     pagecolor="#ffffff"
     bordercolor="#666666"
     borderopacity="1.0"
     inkscape:pageshadow="2"
     inkscape:pageopacity="0.0"
     inkscape:pagecheckerboard="0" /><g
     id="g8"
     inkscape:groupmode="layer"
     inkscape:label="CompAI [Recovered]"
     transform="matrix(1.3333333,0,0,-1.3333333,0,768)"><g
       id="g10"><g
         id="g12"
         clip-path="url(#clipPath16)"><g
           id="g18"
           transform="translate(366.2964,317.989)"><path
             d="m 0,0 -0.044,-0.8 c -0.731,-13.32 -11.762,-23.63 -24.94,-23.63 -0.462,0 -0.926,0.012 -1.393,0.038 -13.787,0.757 -24.349,12.547 -23.592,26.333 l 0.044,0.8 c 0.757,13.786 12.549,24.352 26.333,23.592 C -9.805,25.576 0.757,13.786 0,0 M 147.425,41.347 H 67.45 l -0.144,0.25 C 54.71,63.379 36.54,81.549 14.758,94.145 c -21.721,12.562 -46.531,19.202 -71.75,19.202 -25.218,0 -50.029,-6.64 -71.749,-19.202 -21.782,-12.596 -39.953,-30.766 -52.548,-52.548 -12.563,-21.721 -19.203,-46.532 -19.203,-71.75 0,-25.219 6.64,-50.029 19.203,-71.75 0.321,-0.555 0.662,-1.098 0.99,-1.649 0.549,2.279 1.424,4.519 2.656,6.653 l 97.715,169.246 c 6.903,11.958 22.194,16.054 34.151,9.151 11.957,-6.904 16.054,-22.193 9.151,-34.151 l -77.077,-133.5 H -3.558 l -13.958,24.523 c -6.83,12 -2.639,27.264 9.36,34.094 11.999,6.831 27.264,2.64 34.094,-9.36 l 35.226,-61.891 c 0.015,-0.026 0.028,-0.053 0.043,-0.08 0.179,-0.317 0.352,-0.638 0.517,-0.965 0.025,-0.047 0.05,-0.095 0.074,-0.143 0.163,-0.326 0.319,-0.656 0.468,-0.99 0.024,-0.054 0.049,-0.108 0.073,-0.162 0.137,-0.312 0.266,-0.628 0.39,-0.948 0.032,-0.079 0.064,-0.158 0.094,-0.237 0.106,-0.278 0.204,-0.561 0.3,-0.844 0.041,-0.123 0.085,-0.245 0.125,-0.369 0.073,-0.23 0.141,-0.464 0.208,-0.697 0.051,-0.178 0.105,-0.356 0.152,-0.534 0.047,-0.178 0.088,-0.357 0.131,-0.536 0.058,-0.238 0.115,-0.476 0.165,-0.714 0.026,-0.125 0.049,-0.251 0.073,-0.377 0.048,-0.248 0.098,-0.495 0.138,-0.744 1.095,1.72 2.168,3.456 3.191,5.224 l 0.144,0.25 h 79.975 l -0.236,-0.667 c -9.442,-26.697 -23.852,-50.977 -42.828,-72.167 -5.321,-5.97 -11.048,-11.696 -17.02,-17.019 -21.19,-18.976 -45.47,-33.385 -72.166,-42.828 -23.126,-8.174 -47.406,-12.319 -72.167,-12.319 -24.76,0 -49.041,4.145 -72.166,12.319 -26.696,9.443 -50.977,23.852 -72.167,42.829 -5.971,5.322 -11.698,11.048 -17.02,17.019 -18.976,21.19 -33.385,45.47 -42.828,72.166 -8.174,23.126 -12.319,47.406 -12.319,72.167 0,24.761 4.145,49.041 12.319,72.167 9.442,26.695 23.852,50.976 42.829,72.167 5.322,5.97 11.048,11.697 17.02,17.019 21.189,18.976 45.469,33.385 72.166,42.828 23.125,8.175 47.406,12.319 72.166,12.319 24.761,0 49.041,-4.144 72.167,-12.319 26.697,-9.443 50.977,-23.852 72.167,-42.828 5.971,-5.322 11.697,-11.049 17.019,-17.02 18.976,-21.189 33.386,-45.47 42.828,-72.166 z M 48.454,223.293 h -228.77 c -73.753,0 -133.756,-60.002 -133.756,-133.756 v -239.568 c 0,-73.753 60.003,-133.756 133.756,-133.756 h 228.77 c 73.754,0 133.756,60.003 133.756,133.756 V 89.537 c 0,73.754 -60.002,133.756 -133.756,133.756"
             style="fill:#ffffff;fill-opacity:1;fill-rule:nonzero;stroke:none"
             id="path20" /></g><g
           id="g22"
           transform="translate(237.5552,163.5383)"><path
             d="m 0,0 c 21.72,-12.563 46.53,-19.202 71.75,-19.202 25.218,0 50.029,6.639 71.749,19.202 8.982,5.194 17.338,11.35 24.955,18.302 -0.084,-0.001 -0.169,-0.008 -0.253,-0.008 -0.04,0 -0.08,0.004 -0.12,0.004 H -24.95 C -17.335,11.348 -8.981,5.193 0,0"
             style="fill:#ffffff;fill-opacity:1;fill-rule:nonzero;stroke:none"
             id="path24" /></g></g></g><text
       transform="matrix(1,0,0,-1,711.6743,144.083)"
       style="font-variant:normal;font-weight:900;font-stretch:normal;font-size:319.085px;font-family:'Roboto Black';-inkscape-font-specification:Roboto-Black;writing-mode:lr-tb;fill:#ffffff;fill-opacity:1;fill-rule:nonzero;stroke:none"
       id="text28"><tspan
         x="0 209.31982 388.64566 663.37793 843.02283 1060.3198"
         y="0"
         sodipodi:role="line"
         id="tspan26">CompAI</tspan></text></g></svg>
