<?xml version="1.0" encoding="UTF-8" standalone="no"?>
<!-- Created with Inkscape (http://www.inkscape.org/) -->

<svg
   version="1.1"
   id="svg2"
   xml:space="preserve"
   width="2560"
   height="1440"
   viewBox="0 0 2560 740"
   sodipodi:docname="CompAI.ai"
   xmlns:inkscape="http://www.inkscape.org/namespaces/inkscape"
   xmlns:sodipodi="http://sodipodi.sourceforge.net/DTD/sodipodi-0.dtd"
   xmlns="http://www.w3.org/2000/svg"
   xmlns:svg="http://www.w3.org/2000/svg"><defs
     id="defs6"><clipPath
       clipPathUnits="userSpaceOnUse"
       id="clipPath18"><path
         d="M 0,1080 H 1920 V 0 H 0 Z"
         id="path16" /></clipPath></defs><sodipodi:namedview
     id="namedview4"
     pagecolor="#ffffff"
     bordercolor="#666666"
     borderopacity="1.0"
     inkscape:pageshadow="2"
     inkscape:pageopacity="0.0"
     inkscape:pagecheckerboard="0" /><g
     id="g8"
     inkscape:groupmode="layer" 
     inkscape:label="CompAI"
     transform="matrix(1.3333333,0,0,-1.3333333,0,1440)"><path
       d="M 459.015,409.67 H 141.717 v 324.187 h 317.298 z"
       style="fill:#206bc4;fill-opacity:1;fill-rule:nonzero;stroke:none"
       id="path10" /><g
       id="g12"><g
         id="g14"
         clip-path="url(#clipPath18)"><path
           d="M 459.015,409.67 H 141.717 v 324.187 h 317.298 z"
           style="fill:none;stroke:#206bc4;stroke-width:177;stroke-linecap:butt;stroke-linejoin:round;stroke-miterlimit:10;stroke-dasharray:none;stroke-opacity:1"
           id="path20" /><g
           id="g22"
           transform="translate(513.0146,499.8574)"><path
             d="m 0,0 c -9.49,-26.83 -24.13,-51.23 -42.73,-72 -5.33,-5.98 -11,-11.65 -16.98,-16.98 -20.77,-18.6 -45.17,-33.24 -72,-42.73 -22.52,-7.96 -46.75,-12.29 -72,-12.29 -25.25,0 -49.48,4.33 -72,12.29 -26.83,9.49 -51.23,24.13 -72,42.73 -5.98,5.33 -11.65,11 -16.98,16.98 -18.6,20.77 -33.24,45.17 -42.73,72 -7.96,22.52 -12.29,46.75 -12.29,72 0,25.25 4.33,49.48 12.29,72 9.49,26.83 24.13,51.23 42.73,72 5.33,5.98 11,11.65 16.98,16.98 20.77,18.6 45.17,33.24 72,42.73 22.52,7.96 46.75,12.29 72,12.29 25.25,0 49.48,-4.33 72,-12.29 26.83,-9.49 51.23,-24.13 72,-42.73 5.98,-5.33 11.65,-11 16.98,-16.98 18.6,-20.77 33.24,-45.17 42.73,-72 h -78.98 c -12.64,21.86 -30.87,40.09 -52.73,52.73 -21.18,12.25 -45.77,19.27 -72,19.27 -26.23,0 -50.82,-7.02 -72,-19.27 -21.86,-12.64 -40.09,-30.87 -52.73,-52.73 -12.25,-21.18 -19.27,-45.77 -19.27,-72 0,-26.23 7.02,-50.82 19.27,-72 12.64,-21.86 30.87,-40.09 52.73,-52.73 21.18,-12.25 45.77,-19.27 72,-19.27 26.23,0 50.82,7.02 72,19.27 21.86,12.64 40.09,30.87 52.73,52.73 z"
             style="fill:#ffffff;fill-opacity:1;fill-rule:nonzero;stroke:none"
             id="path24" /></g><g
           id="g26"
           transform="translate(405.7334,490.8574)"><path
             d="M 0,0 H -195.429"
             style="fill:none;stroke:#ffffff;stroke-width:50;stroke-linecap:round;stroke-linejoin:round;stroke-miterlimit:10;stroke-dasharray:none;stroke-opacity:1"
             id="path28" /></g><g
           id="g30"
           transform="translate(308.019,661.8574)"><path
             d="M 0,0 -97.714,-169.246"
             style="fill:none;stroke:#ffffff;stroke-width:50;stroke-linecap:round;stroke-linejoin:round;stroke-miterlimit:10;stroke-dasharray:none;stroke-opacity:1"
             id="path32" /></g><g
           id="g34"
           transform="translate(370.5073,552.7471)"><path
             d="M 0,0 35.226,-61.89"
             style="fill:none;stroke:#ffffff;stroke-width:50;stroke-linecap:round;stroke-linejoin:round;stroke-miterlimit:10;stroke-dasharray:none;stroke-opacity:1"
             id="path36" /></g><g
           id="g38"
           transform="translate(341.29,602.5806)"><path
             d="M 0,0 0.044,0.8"
             style="fill:none;stroke:#ffffff;stroke-width:50;stroke-linecap:round;stroke-linejoin:round;stroke-miterlimit:10;stroke-dasharray:none;stroke-opacity:1"
             id="path40" /></g></g></g><text
       transform="matrix(1,0,0,-1,711.6743,428.1045)"
       style="font-variant:normal;font-weight:900;font-stretch:normal;font-size:319.085px;font-family:'Roboto Black';-inkscape-font-specification:Roboto-Black;writing-mode:lr-tb;fill:#4a4a4a;fill-opacity:1;fill-rule:nonzero;stroke:none"
       id="text44"><tspan
         x="0 209.31982 388.64566 663.37793 843.02283 1060.3198"
         y="0"
         sodipodi:role="line"
         id="tspan42">CompAI</tspan></text></g></svg>
